# vtk DataFile Version 2.0
VTK file generated by VTK Generator (grid: grid)
ASCII
DATASET UNSTRUCTURED_GRID
POINTS 27 float
0.000000 0.000000 0.000000
5.000000 0.000000 0.000000
10.000000 0.000000 0.000000
0.000000 5.000000 0.000000
5.000000 5.000000 0.000000
10.000000 5.000000 0.000000
0.000000 10.000000 0.000000
5.000000 10.000000 0.000000
10.000000 10.000000 0.000000
0.000000 0.000000 5.000000
5.000000 0.000000 5.000000
10.000000 0.000000 5.000000
0.000000 5.000000 5.000000
5.000000 5.000000 5.000000
10.000000 5.000000 5.000000
0.000000 10.000000 5.000000
5.000000 10.000000 5.000000
10.000000 10.000000 5.000000
0.000000 0.000000 10.000000
5.000000 0.000000 10.000000
10.000000 0.000000 10.000000
0.000000 5.000000 10.000000
5.000000 5.000000 10.000000
10.000000 5.000000 10.000000
0.000000 10.000000 10.000000
5.000000 10.000000 10.000000
10.000000 10.000000 10.000000
CELLS 8 72
8 0 1 4 3 9 10 13 12
8 1 2 5 4 10 11 14 13
8 3 4 7 6 12 13 16 15
8 4 5 8 7 13 14 17 16
8 9 10 13 12 18 19 22 21
8 10 11 14 13 19 20 23 22
8 12 13 16 15 21 22 25 24
8 13 14 17 16 22 23 26 25
CELL_TYPES 8
12
12
12
12
12
12
12
12

CELL_DATA 8
SCALARS CellId int 1
LOOKUP_TABLE default
0
1
2
3
4
5
6
7
